<?xml version="1.0" encoding="utf-8"?>
<!-- Generator: Adobe Illustrator 25.4.1, SVG Export Plug-In . SVG Version: 6.00 Build 0)  -->
<svg version="1.1" id="Logo" xmlns="http://www.w3.org/2000/svg" xmlns:xlink="http://www.w3.org/1999/xlink" x="0px" y="0px"
	 viewBox="0 0 122.34 60" style="enable-background:new 0 0 122.34 60;" xml:space="preserve">
<style type="text/css">
	.st0{fill:#FFFFFF;}
	.st1{fill-rule:evenodd;clip-rule:evenodd;fill:#FFFFFF;}
</style>
<g>
	<g>
		<g id="Acis_00000116209964994921556010000002860595440529425596_">
			<g>
				<path class="st0" d="M52.61,14.68H52c-0.19,0-0.35,0.16-0.35,0.35v4.58c-0.58-1.95-1.96-3.03-3.36-3.77
					c-1.4-0.75-3.03-1.12-4.89-1.12c-2.13,0-4.07,0.52-5.79,1.57c-1.73,1.04-3.1,2.54-4.1,4.48c-1.01,1.94-1.51,4.16-1.51,6.67
					c0,2.54,0.5,4.78,1.51,6.74c1.01,1.95,2.37,3.47,4.1,4.54c1.73,1.07,3.64,1.61,5.75,1.61c1.86,0,3.51-0.38,4.94-1.14
					c1.43-0.76,2.78-1.52,3.36-3.75v4.49h6.36V20.04C58.01,17.08,55.59,14.68,52.61,14.68z M50.75,31.43
					c-0.6,1.09-1.41,1.92-2.44,2.51c-1.02,0.58-2.12,0.87-3.29,0.87c-1.14,0-2.22-0.3-3.22-0.9c-1.01-0.6-1.82-1.45-2.43-2.57
					c-0.62-1.12-0.92-2.42-0.92-3.92c0-1.49,0.31-2.78,0.92-3.87c0.62-1.09,1.42-1.92,2.41-2.48c0.99-0.57,2.07-0.85,3.25-0.85
					c1.17,0,2.27,0.29,3.29,0.87c1.02,0.58,1.83,1.42,2.44,2.51c0.6,1.09,0.9,2.39,0.9,3.92C51.65,29.04,51.35,30.34,50.75,31.43z"
					/>
			</g>
			<path class="st0" d="M63.65,20.7c1.05-1.9,2.51-3.37,4.37-4.41c1.86-1.04,4-1.57,6.4-1.57c3.1,0,5.66,0.76,7.69,2.27
				c1.89,1.41,3.2,3.35,3.93,5.82c0.08,0.28-0.13,0.55-0.43,0.55l-6.23,0c-0.36-1.06-0.97-1.89-1.83-2.49
				c-0.86-0.6-1.92-0.9-3.18-0.9c-1.8,0-3.23,0.64-4.28,1.92c-1.05,1.28-1.58,3.1-1.58,5.45c0,2.32,0.53,4.12,1.58,5.4
				c1.05,1.28,2.48,1.92,4.28,1.92c2.55,0,4.22-1.12,5.01-3.35l6.29,0c0.26,0,0.46,0.25,0.38,0.5c-0.73,2.41-2.05,4.35-3.96,5.81
				c-2.04,1.56-4.6,2.34-7.67,2.34c-2.41,0-4.54-0.52-6.4-1.57c-1.86-1.04-3.32-2.51-4.37-4.41c-1.05-1.9-1.58-4.11-1.58-6.64
				C62.07,24.81,62.59,22.6,63.65,20.7z"/>
			<path class="st0" d="M105.98,38.85c-1.62-0.72-2.91-1.7-3.86-2.93c-0.84-1.1-1.35-2.31-1.51-3.62c-0.03-0.26,0.18-0.48,0.45-0.48
				h5.87c0.12,0.94,0.59,1.72,1.42,2.34c0.83,0.62,1.86,0.93,3.09,0.93c1.2,0,2.14-0.24,2.82-0.71c0.68-0.47,1.01-1.07,1.01-1.81
				c0-0.79-0.41-1.39-1.24-1.79c-0.83-0.4-2.14-0.83-3.95-1.3c-1.86-0.44-3.39-0.9-4.58-1.37c-1.19-0.47-2.21-1.19-3.07-2.16
				c-0.86-0.97-1.29-2.28-1.29-3.93c0-1.35,0.4-2.59,1.19-3.71c0.8-1.12,1.94-2,3.43-2.65c1.49-0.65,3.24-0.97,5.25-0.97
				c2.98,0,5.35,0.73,7.12,2.18c1.67,1.37,2.63,3.19,2.89,5.46c0.03,0.24-0.16,0.43-0.4,0.43l-5.6,0c-0.09-0.97-0.5-1.74-1.24-2.32
				c-0.74-0.57-1.72-0.86-2.95-0.86c-1.39,0-2.39,0.3-3,0.91c-0.4,0.4-0.58,0.94-0.56,1.5c0.03,0.79,0.45,1.39,1.26,1.8
				c0.84,0.43,2.15,0.86,3.92,1.3c1.8,0.44,3.29,0.9,4.46,1.37c1.17,0.47,2.19,1.2,3.04,2.18c0.86,0.99,1.3,2.29,1.33,3.9
				c0,1.41-0.4,2.68-1.19,3.79c-0.8,1.12-1.94,1.99-3.43,2.62c-1.49,0.63-3.22,0.95-5.21,0.95
				C109.44,39.93,107.6,39.57,105.98,38.85z"/>
			<rect x="90.14" y="13.98" class="st0" width="6.35" height="25.91"/>
			
				<ellipse id="CIRCULO_DE_LA_I_00000082353235717717710450000005931856116692080516_" class="st0" cx="93.32" cy="8.72" rx="3.14" ry="3.11"/>
		</g>
		<g id="Especializacion_00000072243173048372773260000013684027322211708544_">
			<polygon class="st0" points="32.77,49.02 36.55,49.02 36.55,48.37 32.77,48.37 32.77,45.79 37.01,45.79 37.01,45.12 32,45.12 
				32,52.38 37.17,52.38 37.17,51.72 32.77,51.72 			"/>
			<path class="st0" d="M42.64,49.73c-0.21-0.1-0.45-0.18-0.7-0.24c-0.25-0.06-0.51-0.11-0.76-0.15c-0.25-0.04-0.49-0.1-0.7-0.16
				c-0.21-0.07-0.38-0.16-0.51-0.28c-0.13-0.12-0.19-0.28-0.19-0.49c0-0.26,0.12-0.48,0.35-0.65c0.23-0.17,0.6-0.25,1.09-0.25
				c0.28,0,0.56,0.04,0.84,0.11c0.28,0.07,0.54,0.19,0.78,0.36l0.32-0.59c-0.23-0.15-0.52-0.28-0.88-0.37
				c-0.36-0.09-0.71-0.14-1.07-0.14c-0.47,0-0.86,0.07-1.19,0.2c-0.32,0.13-0.57,0.32-0.74,0.55c-0.17,0.24-0.25,0.5-0.25,0.8
				c0,0.31,0.06,0.56,0.19,0.75c0.13,0.19,0.3,0.33,0.51,0.44c0.21,0.11,0.44,0.19,0.69,0.24c0.25,0.06,0.51,0.1,0.77,0.15
				c0.26,0.04,0.49,0.09,0.7,0.15c0.21,0.06,0.38,0.15,0.51,0.26c0.13,0.11,0.19,0.27,0.19,0.47c0,0.27-0.12,0.49-0.34,0.65
				c-0.23,0.16-0.61,0.24-1.13,0.24c-0.38,0-0.75-0.06-1.1-0.18c-0.35-0.12-0.63-0.26-0.86-0.43l-0.33,0.58
				c0.23,0.19,0.55,0.35,0.95,0.48c0.4,0.13,0.83,0.19,1.29,0.19c0.48,0,0.89-0.06,1.23-0.19c0.34-0.13,0.6-0.31,0.77-0.54
				c0.18-0.23,0.27-0.51,0.27-0.82c0-0.3-0.06-0.54-0.19-0.72C43.02,49.98,42.85,49.83,42.64,49.73z"/>
			<path class="st0" d="M49.8,47.23c-0.41-0.23-0.88-0.35-1.41-0.35c-0.48,0-0.91,0.11-1.3,0.32c-0.34,0.19-0.61,0.46-0.83,0.81
				v-1.08h-0.71v7.46h0.74v-3.06c0.21,0.33,0.48,0.59,0.8,0.77c0.38,0.22,0.81,0.33,1.29,0.33c0.52,0,0.99-0.12,1.41-0.35
				c0.41-0.24,0.74-0.56,0.98-0.98c0.24-0.42,0.36-0.9,0.36-1.45c0-0.55-0.12-1.03-0.36-1.45S50.21,47.46,49.8,47.23z M50.12,50.77
				c-0.18,0.32-0.43,0.57-0.73,0.75c-0.31,0.18-0.65,0.26-1.05,0.26s-0.74-0.09-1.05-0.26c-0.31-0.18-0.55-0.43-0.73-0.75
				c-0.18-0.32-0.27-0.69-0.27-1.12c0-0.42,0.09-0.79,0.27-1.11c0.18-0.32,0.42-0.57,0.73-0.75c0.31-0.18,0.66-0.27,1.05-0.27
				s0.74,0.09,1.05,0.27c0.31,0.18,0.55,0.43,0.73,0.75c0.18,0.32,0.27,0.69,0.27,1.11C50.39,50.08,50.3,50.45,50.12,50.77z"/>
			<path class="st0" d="M57.01,47.23c-0.4-0.23-0.86-0.35-1.37-0.35c-0.51,0-0.97,0.12-1.37,0.36c-0.41,0.24-0.73,0.57-0.96,0.98
				c-0.23,0.41-0.35,0.89-0.35,1.43s0.12,1.02,0.37,1.44c0.24,0.42,0.58,0.75,1.01,0.99c0.43,0.24,0.93,0.36,1.5,0.36
				c0.44,0,0.84-0.08,1.21-0.23c0.37-0.15,0.67-0.37,0.91-0.66l-0.42-0.48c-0.21,0.24-0.46,0.42-0.75,0.54
				c-0.29,0.12-0.6,0.18-0.94,0.18c-0.43,0-0.8-0.09-1.13-0.26s-0.59-0.42-0.77-0.74c-0.15-0.26-0.24-0.56-0.27-0.9h4.61
				c0-0.04,0-0.08,0.01-0.12c0-0.04,0.01-0.07,0.01-0.11c0-0.55-0.12-1.03-0.34-1.45C57.72,47.79,57.41,47.46,57.01,47.23z
				 M53.92,48.5c0.17-0.31,0.4-0.55,0.7-0.73c0.3-0.17,0.64-0.26,1.01-0.26c0.38,0,0.72,0.09,1.01,0.26
				c0.29,0.17,0.52,0.41,0.69,0.72c0.14,0.25,0.22,0.53,0.24,0.84h-3.9C53.71,49.03,53.79,48.75,53.92,48.5z"/>
			<path class="st0" d="M61.88,47.79c0.31-0.18,0.67-0.26,1.06-0.26c0.33,0,0.63,0.07,0.91,0.2c0.28,0.13,0.51,0.34,0.7,0.61
				l0.55-0.37c-0.22-0.36-0.51-0.63-0.89-0.81c-0.38-0.18-0.8-0.27-1.26-0.27c-0.54,0-1.03,0.12-1.46,0.35
				c-0.43,0.24-0.76,0.56-1.01,0.98c-0.24,0.41-0.37,0.9-0.37,1.44c0,0.54,0.12,1.02,0.37,1.44c0.24,0.42,0.58,0.75,1.01,0.99
				c0.43,0.24,0.91,0.36,1.46,0.36c0.47,0,0.89-0.09,1.26-0.28c0.38-0.18,0.67-0.45,0.89-0.8l-0.55-0.37
				c-0.19,0.27-0.42,0.47-0.7,0.6c-0.28,0.13-0.58,0.2-0.91,0.2c-0.39,0-0.74-0.09-1.06-0.26c-0.31-0.18-0.56-0.42-0.74-0.74
				c-0.18-0.32-0.27-0.69-0.27-1.12c0-0.43,0.09-0.8,0.27-1.12C61.32,48.22,61.57,47.97,61.88,47.79z"/>
			<path class="st0" d="M67.7,44.69c-0.15,0-0.28,0.05-0.39,0.15c-0.1,0.1-0.16,0.22-0.16,0.37s0.05,0.27,0.16,0.37
				c0.1,0.1,0.23,0.16,0.39,0.16c0.16,0,0.29-0.05,0.39-0.16s0.15-0.23,0.15-0.38c0-0.15-0.05-0.27-0.16-0.36
				S67.86,44.69,67.7,44.69z"/>
			<rect x="67.33" y="46.94" class="st0" width="0.74" height="5.45"/>
			<path class="st0" d="M72.92,46.89c-0.43,0-0.84,0.06-1.23,0.19c-0.39,0.13-0.72,0.31-1,0.54l0.33,0.55
				c0.22-0.19,0.49-0.35,0.82-0.47c0.32-0.12,0.66-0.18,1.01-0.18c0.52,0,0.9,0.12,1.17,0.37c0.26,0.25,0.39,0.61,0.39,1.07v0.33
				h-1.75c-0.52,0-0.94,0.07-1.25,0.21c-0.31,0.14-0.53,0.33-0.67,0.56c-0.14,0.23-0.2,0.49-0.2,0.77c0,0.31,0.08,0.59,0.24,0.82
				c0.16,0.24,0.39,0.43,0.7,0.56c0.3,0.13,0.66,0.2,1.07,0.2c0.52,0,0.96-0.11,1.3-0.32c0.25-0.16,0.45-0.35,0.59-0.59v0.86h0.71
				V49c0-0.71-0.19-1.24-0.58-1.59C74.18,47.06,73.63,46.89,72.92,46.89z M73.74,51.57c-0.3,0.19-0.66,0.29-1.08,0.29
				c-0.44,0-0.78-0.09-1.02-0.28c-0.24-0.19-0.37-0.44-0.37-0.75c0-0.28,0.1-0.51,0.31-0.7c0.21-0.19,0.57-0.28,1.1-0.28h1.72v0.89
				C74.26,51.1,74.04,51.38,73.74,51.57z"/>
			<rect x="78.02" y="44.69" class="st0" width="0.74" height="7.7"/>
			<rect x="81.69" y="46.94" class="st0" width="0.74" height="5.45"/>
			<path class="st0" d="M82.06,44.69c-0.15,0-0.28,0.05-0.39,0.15c-0.1,0.1-0.16,0.22-0.16,0.37s0.05,0.27,0.16,0.37
				c0.1,0.1,0.23,0.16,0.39,0.16c0.16,0,0.29-0.05,0.39-0.16c0.1-0.1,0.15-0.23,0.15-0.38c0-0.15-0.05-0.27-0.16-0.36
				C82.35,44.74,82.22,44.69,82.06,44.69z"/>
			<polygon class="st0" points="89.16,47.41 89.16,46.94 84.82,46.94 84.82,47.55 88.22,47.55 84.76,51.9 84.76,52.38 89.23,52.38 
				89.23,51.77 85.71,51.77 			"/>
			<path class="st0" d="M93.48,46.89c-0.43,0-0.84,0.06-1.23,0.19c-0.39,0.13-0.72,0.31-1,0.54l0.33,0.55
				c0.22-0.19,0.49-0.35,0.82-0.47c0.32-0.12,0.66-0.18,1.01-0.18c0.52,0,0.9,0.12,1.17,0.37c0.26,0.25,0.39,0.61,0.39,1.07v0.33
				h-1.75c-0.52,0-0.94,0.07-1.25,0.21c-0.31,0.14-0.53,0.33-0.67,0.56c-0.14,0.23-0.2,0.49-0.2,0.77c0,0.31,0.08,0.59,0.24,0.82
				c0.16,0.24,0.39,0.43,0.7,0.56c0.3,0.13,0.66,0.2,1.07,0.2c0.52,0,0.96-0.11,1.3-0.32c0.25-0.16,0.45-0.35,0.59-0.59v0.86h0.71
				V49c0-0.71-0.19-1.24-0.58-1.59C94.74,47.06,94.19,46.89,93.48,46.89z M94.3,51.57c-0.3,0.19-0.66,0.29-1.08,0.29
				c-0.44,0-0.78-0.09-1.02-0.28c-0.24-0.19-0.37-0.44-0.37-0.75c0-0.28,0.1-0.51,0.31-0.7c0.21-0.19,0.57-0.28,1.1-0.28h1.72v0.89
				C94.82,51.1,94.6,51.38,94.3,51.57z"/>
			<path class="st0" d="M99.79,47.79c0.31-0.18,0.67-0.26,1.06-0.26c0.33,0,0.63,0.07,0.91,0.2c0.28,0.13,0.51,0.34,0.7,0.61
				l0.55-0.37c-0.22-0.36-0.51-0.63-0.89-0.81c-0.38-0.18-0.8-0.27-1.26-0.27c-0.54,0-1.03,0.12-1.46,0.35
				c-0.43,0.24-0.76,0.56-1.01,0.98c-0.24,0.41-0.37,0.9-0.37,1.44c0,0.54,0.12,1.02,0.37,1.44c0.24,0.42,0.58,0.75,1.01,0.99
				c0.43,0.24,0.91,0.36,1.46,0.36c0.47,0,0.89-0.09,1.26-0.28c0.38-0.18,0.67-0.45,0.89-0.8l-0.55-0.37
				c-0.19,0.27-0.42,0.47-0.7,0.6c-0.28,0.13-0.58,0.2-0.91,0.2c-0.39,0-0.74-0.09-1.06-0.26c-0.31-0.18-0.56-0.42-0.74-0.74
				c-0.18-0.32-0.27-0.69-0.27-1.12c0-0.43,0.09-0.8,0.27-1.12C99.23,48.22,99.47,47.97,99.79,47.79z"/>
			<rect x="105.23" y="46.94" class="st0" width="0.74" height="5.45"/>
			<path class="st0" d="M105.61,44.69c-0.15,0-0.28,0.05-0.39,0.15c-0.1,0.1-0.16,0.22-0.16,0.37s0.05,0.27,0.16,0.37
				c0.1,0.1,0.23,0.16,0.39,0.16c0.16,0,0.29-0.05,0.39-0.16c0.1-0.1,0.15-0.23,0.15-0.38c0-0.15-0.05-0.27-0.16-0.36
				C105.89,44.74,105.76,44.69,105.61,44.69z"/>
			<polygon class="st0" points="112.88,44.8 111.89,44.8 110.46,46.09 111.19,46.09 			"/>
			<path class="st0" d="M112.58,47.24c-0.42-0.24-0.9-0.35-1.45-0.35c-0.54,0-1.01,0.12-1.43,0.35c-0.42,0.24-0.75,0.56-0.99,0.98
				c-0.24,0.41-0.37,0.9-0.37,1.44c0,0.54,0.12,1.02,0.37,1.44c0.24,0.42,0.58,0.75,1,0.99c0.42,0.24,0.9,0.36,1.43,0.36
				c0.54,0,1.02-0.12,1.44-0.36c0.42-0.24,0.76-0.57,1-0.99c0.24-0.42,0.36-0.9,0.36-1.44c0-0.55-0.12-1.03-0.36-1.44
				C113.34,47.8,113.01,47.47,112.58,47.24z M112.92,50.77c-0.18,0.32-0.42,0.57-0.73,0.75c-0.31,0.18-0.66,0.26-1.06,0.26
				c-0.38,0-0.73-0.09-1.03-0.26s-0.55-0.43-0.73-0.75c-0.18-0.32-0.27-0.69-0.27-1.12c0-0.43,0.09-0.8,0.27-1.12
				c0.18-0.32,0.42-0.57,0.73-0.74s0.65-0.26,1.05-0.26c0.39,0,0.74,0.09,1.05,0.26c0.31,0.18,0.55,0.42,0.73,0.74
				s0.27,0.69,0.27,1.12C113.19,50.08,113.1,50.45,112.92,50.77z"/>
			<path class="st0" d="M121.08,47.91c-0.19-0.35-0.46-0.6-0.79-0.77c-0.34-0.17-0.73-0.25-1.18-0.25c-0.53,0-0.99,0.11-1.37,0.34
				c-0.31,0.18-0.55,0.42-0.72,0.71v-1h-0.71v5.45h0.74v-2.86c0-0.42,0.08-0.77,0.24-1.06c0.16-0.29,0.38-0.52,0.67-0.67
				c0.29-0.16,0.63-0.23,1.02-0.23c0.52,0,0.93,0.15,1.22,0.44c0.29,0.29,0.43,0.73,0.43,1.3v3.09h0.74v-3.16
				C121.37,48.69,121.27,48.26,121.08,47.91z"/>
		</g>
	</g>
	<g id="Isotipo_00000006699396237590119320000017584733377621789619_">
		<path class="st0" d="M29.24,11.6c-0.08,0-0.15,0.01-0.21,0.04c-0.11,0.04-0.26,0.13-0.32,0.2c-10.47,10.3-22.95,5.73-24.11-6.6
			c-0.01-0.07,0-0.18,0-0.24c0-0.07-0.01-0.14-0.03-0.2C4.47,4.54,4.23,4.35,3.93,4.35c-0.22,0-0.41,0.11-0.53,0.27
			c-0.07,0.09-0.13,0.15-0.2,0.35c-6.1,16.19,0.27,35.72,19.26,54.27c0.03,0.05,0.1,0.09,0.14,0.12c0.08,0.05,0.17,0.08,0.27,0.08
			c0.27,0,0.49-0.22,0.49-0.48c0-0.02,0-0.05-0.01-0.07c-0.01-0.09-0.08-0.27-0.13-0.34c-0.04-0.06-0.11-0.19-0.14-0.24
			c-0.06-0.12-0.11-0.25-0.17-0.37c-0.01-0.02-0.02-0.04-0.03-0.06c-0.06-0.14-0.13-0.29-0.19-0.43c-0.02-0.05-0.04-0.1-0.06-0.14
			c-0.04-0.1-0.08-0.19-0.12-0.29c-0.02-0.06-0.05-0.12-0.07-0.17c-0.04-0.09-0.07-0.17-0.11-0.26c-0.02-0.06-0.05-0.12-0.07-0.18
			c-0.03-0.08-0.07-0.17-0.1-0.25c-0.02-0.06-0.05-0.12-0.07-0.18c-0.03-0.09-0.07-0.17-0.1-0.26c-0.02-0.06-0.04-0.12-0.07-0.18
			c-0.03-0.09-0.07-0.18-0.1-0.27c-0.02-0.05-0.04-0.11-0.06-0.16c-0.04-0.11-0.08-0.22-0.12-0.34c-0.01-0.03-0.02-0.06-0.03-0.09
			c-0.05-0.14-0.1-0.28-0.15-0.42c-0.02-0.05-0.03-0.1-0.05-0.14c-0.03-0.09-0.06-0.19-0.09-0.28c-0.02-0.06-0.04-0.12-0.06-0.17
			c-0.03-0.08-0.05-0.17-0.08-0.25c-0.02-0.06-0.04-0.12-0.06-0.18c-0.03-0.08-0.05-0.16-0.08-0.24c-0.02-0.06-0.04-0.12-0.06-0.18
			c-0.02-0.08-0.05-0.16-0.07-0.24c-0.02-0.06-0.04-0.12-0.05-0.18c-0.02-0.08-0.05-0.17-0.07-0.25c-0.02-0.06-0.03-0.11-0.05-0.17
			c-0.03-0.1-0.05-0.2-0.08-0.29c-0.01-0.04-0.02-0.09-0.03-0.13c-0.04-0.14-0.07-0.27-0.11-0.41c-0.01-0.05-0.02-0.1-0.04-0.15
			c-0.02-0.09-0.05-0.18-0.07-0.27c-0.01-0.06-0.03-0.12-0.04-0.18c-0.02-0.08-0.04-0.16-0.06-0.24c-0.01-0.06-0.03-0.12-0.04-0.19
			c-0.02-0.08-0.04-0.15-0.05-0.23c-0.01-0.06-0.03-0.13-0.04-0.19c-0.02-0.08-0.03-0.15-0.05-0.23c-0.01-0.06-0.03-0.13-0.04-0.19
			c-0.02-0.08-0.03-0.16-0.05-0.23c-0.01-0.06-0.02-0.12-0.04-0.18c-0.02-0.08-0.03-0.17-0.05-0.25c-0.01-0.05-0.02-0.11-0.03-0.16
			c-0.02-0.13-0.05-0.27-0.07-0.4c-0.01-0.06-0.02-0.11-0.03-0.17c-0.01-0.08-0.03-0.16-0.04-0.24c-0.01-0.06-0.02-0.13-0.03-0.19
			c-0.01-0.07-0.02-0.15-0.03-0.22c-0.01-0.07-0.02-0.13-0.03-0.2c-0.01-0.07-0.02-0.14-0.03-0.21c-0.01-0.07-0.02-0.13-0.03-0.2
			c-0.01-0.07-0.02-0.14-0.03-0.21c-0.01-0.07-0.02-0.14-0.03-0.2c-0.01-0.07-0.02-0.14-0.02-0.2c-0.01-0.07-0.02-0.14-0.02-0.2
			c-0.01-0.07-0.01-0.14-0.02-0.2c-0.01-0.07-0.01-0.14-0.02-0.2c-0.01-0.08-0.02-0.16-0.02-0.24c-0.01-0.12-0.02-0.24-0.03-0.36
			c-0.01-0.06-0.01-0.13-0.02-0.19c-0.01-0.07-0.01-0.15-0.02-0.22c0-0.06-0.01-0.12-0.01-0.18c-0.01-0.07-0.01-0.15-0.01-0.22
			c0-0.06-0.01-0.12-0.01-0.18c0-0.08-0.01-0.15-0.01-0.23c0-0.06-0.01-0.11-0.01-0.17c0-0.08-0.01-0.15-0.01-0.23
			c0-0.05,0-0.11-0.01-0.16c0-0.08-0.01-0.16-0.01-0.24c0-0.05,0-0.1,0-0.14c-0.01-0.31-0.01-0.62-0.01-0.93c0-0.03,0-0.05,0-0.08
			c0-0.09,0-0.18,0-0.27c0-0.04,0-0.08,0-0.13c0-0.09,0-0.17,0-0.26c0-0.04,0-0.09,0-0.13c0-0.09,0-0.17,0.01-0.26
			c0-0.04,0-0.09,0-0.13c0-0.09,0.01-0.17,0.01-0.26c0-0.04,0-0.08,0-0.12c0-0.09,0.01-0.19,0.01-0.28c0-0.02,0-0.05,0-0.07
			c0.02-0.46,0.05-0.92,0.09-1.37c0-0.02,0-0.03,0-0.05c0.01-0.1,0.02-0.21,0.03-0.31c0-0.02,0-0.05,0.01-0.07
			c0.01-0.1,0.02-0.2,0.03-0.3c0-0.02,0.01-0.05,0.01-0.07c0.01-0.1,0.02-0.21,0.03-0.31c0-0.02,0-0.04,0.01-0.05
			c0.1-0.84,0.22-1.67,0.37-2.49c0,0,0,0,0,0c1.28-7.07,4.42-13.79,8.55-20.33c0,0,0,0,0,0c0.37-0.59,0.78-1.15,1.17-1.73
			c0.07-0.14,0.07-0.15,0.1-0.22c0.03-0.07,0.04-0.14,0.04-0.21C29.82,11.86,29.56,11.6,29.24,11.6z"/>
		<path class="st1" d="M22.83,6.44c0-0.02,0-0.04,0-0.05c0-0.04,0-0.08,0-0.11c0-0.02,0-0.04,0-0.06c0-0.04,0-0.07-0.01-0.11
			c0-0.02,0-0.04-0.01-0.06c0-0.03-0.01-0.07-0.01-0.1c0-0.02,0-0.04-0.01-0.06c0-0.04-0.01-0.07-0.01-0.11c0-0.02,0-0.04-0.01-0.05
			c-0.01-0.04-0.01-0.08-0.02-0.12c0-0.01,0-0.03-0.01-0.04c-0.02-0.11-0.04-0.22-0.07-0.32c0-0.01,0-0.02-0.01-0.03
			c-0.01-0.04-0.02-0.09-0.03-0.13c0-0.01-0.01-0.03-0.01-0.04c-0.01-0.04-0.02-0.07-0.03-0.11c0-0.02-0.01-0.03-0.02-0.05
			c-0.01-0.03-0.02-0.07-0.03-0.1c-0.01-0.02-0.01-0.04-0.02-0.05c-0.01-0.03-0.02-0.07-0.03-0.1c-0.01-0.02-0.01-0.04-0.02-0.06
			c-0.01-0.03-0.02-0.06-0.04-0.09c-0.01-0.02-0.01-0.04-0.02-0.06c-0.01-0.03-0.02-0.06-0.04-0.09c-0.04-0.1-0.09-0.21-0.14-0.31
			c0-0.01-0.01-0.01-0.01-0.02c0-0.01-0.01-0.02-0.01-0.03c0,0,0,0,0,0c-0.99-2.01-3.07-3.39-5.47-3.39c-3.37,0-6.09,2.71-6.09,6.05
			c0,2.79,1.9,5.14,4.49,5.84c0,0,0.01,0,0.01,0c0.05,0.01,0.1,0.03,0.16,0.04c0.01,0,0.01,0,0.02,0c0.05,0.01,0.11,0.03,0.16,0.04
			c0,0,0,0,0,0c0.11,0.02,0.23,0.04,0.34,0.06c0.01,0,0.02,0,0.03,0c0.05,0.01,0.09,0.01,0.14,0.02c0.02,0,0.03,0,0.05,0.01
			c0.04,0,0.08,0.01,0.12,0.01c0.02,0,0.04,0,0.06,0.01c0.04,0,0.07,0.01,0.11,0.01c0.02,0,0.04,0,0.06,0c0.04,0,0.08,0,0.12,0.01
			c0.02,0,0.04,0,0.05,0c0.06,0,0.11,0,0.17,0c3.36,0,6.09-2.71,6.09-6.05C22.83,6.55,22.83,6.5,22.83,6.44z"/>
	</g>
</g>
</svg>
